<svg width="112" height="111" viewBox="0 0 112 111" fill="none" xmlns="http://www.w3.org/2000/svg">
<rect width="112" height="111" fill="none"/>
<g id="&#209;&#129;&#209;&#130;&#208;&#190;&#209;&#128;&#209;&#150;&#208;&#189;&#208;&#186;&#208;&#176;" clip-path="url(#clip0_0_1)">
<rect width="1920" height="6375" transform="translate(-1289 -2312)" fill="none"/>
<g id="Group 17">
<g id="Group 16">
<path id="Vector" d="M111.037 3.96706V87.7401C111.037 89.1883 110.247 90.5203 108.98 91.2157L75.1066 109.804C73.9446 110.442 72.5464 110.461 71.3771 109.851L39.1298 93.1791L5.73944 109.876C5.17795 110.155 4.57356 110.294 3.96554 110.294C3.24132 110.294 2.51736 110.095 1.88204 109.702C0.712524 108.979 0 107.703 0 106.329V25.5299C0 24.1491 0.716423 22.8693 1.89348 22.1488L37.0881 0.585892C38.2696 -0.142228 39.7412 -0.194478 40.9804 0.444739L73.1928 17.0971L105.243 0.448378C106.47 -0.190579 107.946 -0.138069 109.131 0.578353C110.312 1.2966 111.037 2.58231 111.037 3.96706Z" fill="#CCDDFB"/>
<path id="Vector_2" d="M73.2048 57.6458V66.5684L59.7201 59.8281C57.7372 58.8751 56.9475 56.4956 57.8961 54.5127C58.8875 52.5298 61.2692 51.738 63.2131 52.6889L73.2048 57.6458ZM26.8066 55.9806C22.5078 57.3087 21.4932 54.2358 21.4932 54.2358C20.5017 52.2529 21.2956 49.8733 23.24 48.8819L39.1604 40.8811V0.0169948C38.4401 0.0149152 37.7237 0.19506 37.0884 0.586025L1.89372 22.1489C0.716667 22.8695 0.000244141 24.1492 0.000244141 25.5301V60.5812L12.8496 54.0772C14.7937 53.0858 17.2102 53.8797 18.163 55.8218C19.1544 57.8047 18.399 60.1843 16.4161 61.1757L0.000244141 69.4634V106.329C0.000244141 107.704 0.712767 108.98 1.88228 109.702C2.5176 110.095 3.24156 110.295 3.96578 110.295C4.57355 110.295 5.17793 110.156 5.73942 109.877L39.1292 93.1797L39.1602 93.1953V49.7655L26.8066 55.9806ZM54.647 52.809C55.7582 50.9111 54.8055 48.4465 52.8229 47.4935L39.1797 40.9121V49.7145L49.3723 54.6328C49.3723 54.6328 52.5362 56.4181 54.647 52.809ZM94.698 51.1435C94.698 51.1435 96.6884 54.6133 99.9726 53.0471L111.037 47.7724V87.7405C111.037 89.1887 110.247 90.5207 108.98 91.2161L75.1066 109.805C74.5103 110.132 73.8554 110.291 73.1973 110.291V17.0952L105.244 0.448512C106.471 -0.190445 107.947 -0.137936 109.131 0.578487C110.313 1.29673 111.037 2.58218 111.037 3.9672V38.9679L96.5608 45.8693C94.5779 46.8197 93.745 49.1606 94.698 51.1435ZM91.844 52.6096C90.8525 50.6672 88.4709 49.8733 86.5306 50.9056L73.205 57.6864V66.5686L90.14 57.9638C92.0798 56.9721 92.8352 54.5535 91.844 52.6096Z" fill="#A5AEFF"/>
</g>
</g>
</g>
<defs>
<clipPath id="clip0_0_1">
<rect width="1920" height="6375" fill="white" transform="translate(-1289 -2312)"/>
</clipPath>
</defs>
</svg>
