<svg width="101" height="101" viewBox="0 0 101 101" fill="none" xmlns="http://www.w3.org/2000/svg">
<g id="Group 15">
<path id="Vector" d="M32.2588 0V100.067H95.3103C97.49 100.067 100.054 98.5944 100.054 95.7894V4.26306C100.054 1.73954 98.8412 0 96.1678 0H32.2588Z" fill="#A5AEFF"/>
<path id="Vector_2" d="M8.50537 4.0374V9.98917H15.9239C18.2075 9.98917 20.0464 11.828 20.0464 14.1117V18.0824C20.0464 20.366 18.2075 22.2049 15.9239 22.2049H8.50537V44.0252H15.9239C18.2075 44.0252 20.0464 45.8641 20.0464 48.1477V52.1184C20.0464 54.4021 18.2075 56.241 15.9239 56.241H8.50537V78.0613H15.9239C18.2075 78.0613 20.0464 79.9001 20.0464 82.1838V86.1545C20.0464 88.4381 18.2075 90.2736 15.9239 90.2736H8.50537V94.8868C8.50537 98.5816 10.7111 100.067 13.8031 100.067H32.2587V0H12.6748C9.70074 0 8.50537 1.22883 8.50537 4.0374Z" fill="#CCDDFB"/>
<path id="Vector_3" d="M4.17037 9.98926C1.88671 9.98926 0.0478516 11.8281 0.0478516 14.1118V18.0825C0.0478517 20.3661 1.88671 22.205 4.17037 22.205H15.9239C18.2076 22.205 20.0464 20.3661 20.0464 18.0825V14.1118C20.0464 11.8281 18.2076 9.98926 15.9239 9.98926H4.17037ZM4.17037 44.0253C1.88671 44.0253 0.0478516 45.8642 0.0478516 48.1478V52.1185C0.0478517 54.4022 1.88671 56.241 4.17037 56.241H15.9239C18.2076 56.241 20.0464 54.4022 20.0464 52.1185V48.1478C20.0464 45.8642 18.2076 44.0253 15.9239 44.0253H4.17037ZM4.17037 78.0613C1.88671 78.0613 0.0478516 79.9002 0.0478516 82.1839V86.1546C0.0478517 88.4382 1.88671 90.2737 4.17037 90.2737H15.9239C18.2076 90.2737 20.0464 88.4382 20.0464 86.1546V82.1839C20.0464 79.9002 18.2076 78.0613 15.9239 78.0613H4.17037Z" fill="#6B76FF"/>
<path id="Vector_4" d="M79.9159 13.3328H51.5828C49.3077 13.3328 47.4634 15.1771 47.4634 17.4522V30.1302C47.4634 32.4053 49.3077 34.2496 51.5828 34.2496H79.9159C82.1909 34.2496 84.0352 32.4053 84.0352 30.1302V17.4522C84.0352 15.1771 82.1909 13.3328 79.9159 13.3328Z" fill="#CCDDFB"/>
</g>
</svg>
