<svg xmlns="http://www.w3.org/2000/svg" width="42" height="41" viewBox="0 0 46 44" fill="none">
  <path d="M2 17.4746V39.1987C2 39.967 2.30517 40.7037 2.84838 41.2469C3.39159 41.7901 4.12834 42.0953 4.89655 42.0953H41.1034C41.8717 42.0953 42.6084 41.7901 43.1516 41.2469C43.6948 40.7037 44 39.967 44 39.1987V17.4746" stroke="#A5AEFF" stroke-width="3" stroke-linecap="round" stroke-linejoin="round"/>
  <path d="M10.3276 13.6875C7.41593 14.5767 4.62042 15.8091 2 17.3589L21.3562 30.7047C21.8396 31.0379 22.4129 31.2163 23 31.2163C23.5871 31.2163 24.1604 31.0379 24.6438 30.7047L44 17.3589C41.3796 15.8091 38.5841 14.5767 35.6724 13.6875" stroke="#A5AEFF" stroke-width="3" stroke-linecap="round" stroke-linejoin="round"/>
  <path d="M10.3276 23.1014V4.17241C10.3276 3.59625 10.5565 3.04369 10.9639 2.63628C11.3713 2.22888 11.9239 2 12.5001 2H33.5C34.0762 2 34.6288 2.22888 35.0362 2.63628C35.4436 3.04369 35.6725 3.59625 35.6725 4.17241V23.0941L24.6438 30.7048C24.1604 31.038 23.5872 31.2164 23.0001 31.2164C22.4129 31.2164 21.8397 31.038 21.3563 30.7048L10.3349 23.1014" stroke="#A5AEFF" stroke-width="3" stroke-linecap="round" stroke-linejoin="round"/>
  <path d="M29.8792 8.43799H16.1206" stroke="#A5AEFF" stroke-width="3" stroke-linecap="round" stroke-linejoin="round"/>
  <path d="M22.9999 19.5967H16.1206" stroke="#A5AEFF" stroke-width="3" stroke-linecap="round" stroke-linejoin="round"/>
  <path d="M29.8792 14.0205H16.1206" stroke="#A5AEFF" stroke-width="3" stroke-linecap="round" stroke-linejoin="round"/>
  <path d="M18.0616 28.4453L2.93433 41.335" stroke="#A5AEFF" stroke-width="3" stroke-linecap="round" stroke-linejoin="round"/>
  <path d="M27.9026 28.4453L43.0733 41.335" stroke="#A5AEFF" stroke-width="3" stroke-linecap="round" stroke-linejoin="round"/>
</svg>
