<svg xmlns="http://www.w3.org/2000/svg" width="42" height="40" viewBox="0 0 41 38" fill="none">
  <path d="M39.2924 1.29125L39.2924 1.29123C38.3348 0.485001 37.0163 0.276406 35.8606 0.750838L2.58622 14.3896L2.58622 14.3896L2.58307 14.3909C0.861888 15.1102 0.0495586 17.1031 0.753114 18.8384L1.21616 18.6506L0.753117 18.8384C1.11771 19.7376 1.84469 20.4383 2.75369 20.761L2.75453 20.7612L9.69277 23.2102L13.5098 36.0234C13.5099 36.0238 13.51 36.0242 13.5102 36.0245C13.528 36.0846 13.5528 36.1315 13.573 36.1642C13.5783 36.1726 13.5835 36.1806 13.5885 36.1878C13.6478 36.3236 13.7282 36.4494 13.8265 36.5604C13.8683 36.61 13.9136 36.6564 13.9616 36.6993L13.9669 36.7041L13.9725 36.7088C14.1052 36.8207 14.2573 36.9071 14.4212 36.9635C14.4534 36.9812 14.5009 37.0033 14.5618 37.0175L14.6281 37.0329L14.642 37.0323C14.722 37.0465 14.8031 37.0533 14.8844 37.0525L14.8844 37.0527L14.8979 37.0522C15.0122 37.0481 15.1257 37.0299 15.2358 36.998C15.2389 36.9975 15.2421 36.997 15.2454 36.9964C15.2666 36.9926 15.296 36.9863 15.3298 36.9748L15.3299 36.9749L15.3379 36.972C15.5241 36.9054 15.6939 36.8006 15.8368 36.6647C15.866 36.645 15.9024 36.6165 15.9382 36.5764L15.9384 36.5762L21.2225 30.6568L29.0164 36.784C29.0166 36.7842 29.0169 36.7844 29.0171 36.7846C29.601 37.2477 30.3217 37.5001 31.0648 37.5C32.6688 37.4997 34.0449 36.3597 34.3726 34.7796L34.3733 34.7764L40.4327 4.57475C40.4327 4.57471 40.4327 4.57466 40.4327 4.57461C40.6782 3.35277 40.2418 2.09063 39.2924 1.29125ZM14.3638 36.9276L14.3639 36.9276C14.362 36.9264 14.3597 36.9247 14.3638 36.9276ZM12.5646 22.8333L22.9266 17.355L15.9166 24.4723L15.9165 24.4725C15.7194 24.6727 15.5857 24.9264 15.5306 25.2015C15.5305 25.2016 15.5305 25.2018 15.5305 25.202L14.6151 29.7185L12.5646 22.8333ZM31.2493 34.5801L31.2493 34.58L31.2384 34.5843C31.0845 34.6443 30.9104 34.6181 30.7794 34.5128L30.7753 34.5096L21.9284 27.5548L21.9284 27.5548C21.3369 27.0899 20.4917 27.1667 19.9914 27.7273C19.9914 27.7273 19.9914 27.7273 19.9914 27.7273L17.3298 30.7088L18.2441 26.2024L31.4896 12.7526C32.0443 12.1905 32.0452 11.2814 31.4914 10.7183C31.051 10.2702 30.3716 10.1626 29.8154 10.4569C29.8154 10.4569 29.8153 10.4569 29.8153 10.457L10.7627 20.5301L3.69491 18.0358L3.69493 18.0358L3.68694 18.0331C3.49618 17.9694 3.35991 17.7864 3.35744 17.5717L3.35734 17.5634L3.35697 17.555C3.34713 17.3359 3.47499 17.1405 3.66593 17.0629L3.66737 17.0623L36.9365 3.42531L36.9365 3.42538L36.9447 3.42186C37.115 3.34848 37.312 3.37848 37.4548 3.50235L37.4546 3.5025L37.4655 3.51144C37.6049 3.62567 37.6717 3.81309 37.6326 3.99623L37.6326 3.99622L37.6314 4.00228L31.5743 34.1983C31.5742 34.1986 31.5742 34.1989 31.5741 34.1992C31.537 34.3784 31.412 34.521 31.2493 34.5801Z" fill="#A5AEFF" stroke="#A5AEFF"/>
</svg>
