<svg xmlns="http://www.w3.org/2000/svg" width="42" height="42" viewBox="0 0 43 43" fill="none">
  <path d="M21.5 0C9.64466 0 0 9.64466 0 21.5C0 33.3553 9.64466 43 21.5 43C33.3553 43 43 33.3554 43 21.5C43 9.64465 33.3554 0 21.5 0ZM30.7281 25.837C30.8471 24.4064 30.9123 22.9533 30.9123 21.5C30.9123 20.0467 30.8471 18.5936 30.7281 17.163C36.0235 18.3159 38.8387 20.2933 38.8387 21.5C38.8387 22.7067 36.0235 24.6841 30.7281 25.837ZM21.5 38.8387C20.2933 38.8387 18.3159 36.0235 17.163 30.7281C18.5936 30.8471 20.0467 30.9123 21.5 30.9123C22.9533 30.9123 24.4064 30.8471 25.837 30.7281C24.6841 36.0235 22.7067 38.8387 21.5 38.8387ZM21.5 26.751C19.6965 26.751 18.0399 26.6538 16.5041 26.4959C16.3462 24.9601 16.249 23.3035 16.249 21.5C16.249 19.6965 16.3462 18.0399 16.5041 16.5041C18.0399 16.3462 19.6965 16.249 21.5 16.249C23.3035 16.249 24.9601 16.3462 26.4959 16.5041C26.6538 18.0399 26.751 19.6965 26.751 21.5C26.751 23.3035 26.6538 24.9601 26.4959 26.4959C24.9601 26.6538 23.3035 26.751 21.5 26.751ZM4.16129 21.5C4.16129 20.2933 6.97646 18.3159 12.2719 17.163C12.1529 18.5936 12.0877 20.0467 12.0877 21.5C12.0877 22.9533 12.1529 24.4064 12.2719 25.837C6.97646 24.6841 4.16129 22.7067 4.16129 21.5ZM21.5 4.16129C22.7067 4.16129 24.6841 6.97646 25.837 12.2719C24.4064 12.1529 22.9533 12.0877 21.5 12.0877C20.0467 12.0877 18.5936 12.1529 17.163 12.2719C18.3159 6.97646 20.2933 4.16129 21.5 4.16129ZM37.582 15.0517C35.4992 14.0672 32.9447 13.3301 30.1655 12.8345C29.6699 10.0553 28.9328 7.50078 27.9483 5.41801C32.3265 7.18007 35.8199 10.6735 37.582 15.0517ZM15.0517 5.4181C14.0672 7.50086 13.3301 10.0554 12.8345 12.8345C10.0554 13.3301 7.50086 14.067 5.4181 15.0517C7.18015 10.6734 10.6736 7.18015 15.0517 5.4181ZM5.41818 27.9483C7.50095 28.933 10.0554 29.6699 12.8345 30.1655C13.3301 32.9446 14.067 35.4991 15.0517 37.5818C10.6736 35.8198 7.18024 32.3264 5.41818 27.9483ZM27.9483 37.5819C28.933 35.4991 29.6699 32.9446 30.1655 30.1655C32.9446 29.6699 35.4991 28.9328 37.5819 27.9483C35.8198 32.3264 32.3266 35.8198 27.9483 37.5819Z" fill="#A5AEFF"/>
</svg>