<svg width="22" height="22" viewBox="0 0 22 22" fill="none" xmlns="http://www.w3.org/2000/svg">
<path d="M13.3049 8.37277C11.5855 7.80803 9.64503 7.95536 7.99934 8.76562C7.33615 9.08482 6.74665 9.50223 6.23084 9.9933C5.0764 9.2567 3.55352 9.37946 2.54646 10.3862C2.34996 10.5826 2.34996 10.8772 2.54646 11.0737L4.36408 12.8906C3.99565 13.9955 3.8974 15.1496 4.0939 16.3281C2.98858 16.058 1.78502 16.3527 0.949889 17.1875C0.262138 17.8996 -0.0817379 18.8571 0.0165124 19.8393C0.0410749 20.0357 0.163888 20.2076 0.360388 20.2567C0.556888 20.3058 0.753389 20.2567 0.876202 20.1094C0.900764 20.0603 0.949889 20.0357 0.974452 19.9866C1.44114 19.5446 2.0552 19.3237 2.49733 19.471C2.64471 19.9129 2.44821 20.5513 1.98152 20.9933L1.8587 21.1161C1.71133 21.2388 1.6622 21.4598 1.71133 21.6317C1.76045 21.8281 1.93239 21.9509 2.12889 21.9754C2.22714 21.9754 2.32539 22 2.42364 22C3.30789 22 4.14302 21.6562 4.75709 21.0424C5.59221 20.2076 5.88696 19.0045 5.61677 17.8996C6.00978 17.9732 6.40278 17.9978 6.79578 17.9978C7.55722 17.9978 8.31866 17.875 9.03097 17.6295L10.8486 19.4464C10.9468 19.5446 11.0697 19.5938 11.1925 19.5938C11.3153 19.5938 11.4381 19.5446 11.5364 19.4464C12.5434 18.4397 12.6662 16.9174 11.9294 15.7634C12.4206 15.2478 12.8382 14.6585 13.1575 13.9955C13.968 12.3504 14.1154 10.4353 13.5505 8.69196C13.575 8.54464 13.4522 8.42187 13.3049 8.37277ZM4.0939 20.3304C3.87283 20.5513 3.57808 20.7478 3.28333 20.846C3.60265 20.183 3.62721 19.4464 3.30789 18.8817C3.25877 18.808 3.18508 18.7344 3.11139 18.6853C2.84121 18.5379 2.52189 18.4643 2.17802 18.4643C1.83414 18.4643 1.4657 18.5379 1.12183 18.7098C1.24464 18.4152 1.41658 18.1451 1.63764 17.8996C2.37452 17.1629 3.55352 17.0156 4.43777 17.5312C4.97815 18.4152 4.83077 19.5938 4.0939 20.3304ZM3.65177 10.779C3.94652 10.6071 4.2904 10.5089 4.65883 10.5089C4.97815 10.5089 5.29746 10.5826 5.56765 10.7299C5.2729 11.0982 5.00271 11.5156 4.80621 11.9085L3.65177 10.779ZM11.217 18.3415L10.0626 17.1875C10.4802 16.9665 10.8732 16.721 11.2416 16.4263C11.389 16.6964 11.4627 17.0156 11.4627 17.3348C11.4872 17.7031 11.389 18.0469 11.217 18.3415ZM11.1679 15.1987C9.59591 16.7701 7.33615 17.3594 5.22377 16.7946C4.63427 14.683 5.22377 12.4241 6.82034 10.8527C7.16422 10.5089 7.53265 10.2143 7.95022 9.96875C8.29409 10.9018 8.85903 11.7857 9.57135 12.4732C10.2837 13.1853 11.1433 13.7254 12.0767 14.0692C11.8065 14.4621 11.5118 14.8549 11.1679 15.1987ZM12.5189 13.1607C12.3224 13.0871 12.1504 13.0134 11.9785 12.9397C11.3399 12.6451 10.7503 12.2522 10.2591 11.7366C9.76785 11.2455 9.35028 10.6562 9.05553 10.0179C8.98184 9.84598 8.90816 9.64955 8.83447 9.47768C10.0872 8.96205 11.4872 8.86384 12.7645 9.23214C13.1084 10.5335 13.0347 11.933 12.5189 13.1607ZM8.56428 13.4308C8.76078 13.6272 8.76078 13.9219 8.56428 14.1183L7.70459 14.9777C7.60634 15.0759 7.48353 15.125 7.36072 15.125C7.2379 15.125 7.11509 15.0759 7.01684 14.9777C6.82034 14.7812 6.82034 14.4866 7.01684 14.2902L7.87653 13.4308C8.04847 13.2344 8.36778 13.2344 8.56428 13.4308ZM20.2806 0C19.3227 0 18.5612 0.761161 18.5612 1.71875C18.5612 2.50446 19.0771 3.14286 19.7894 3.36384V7.61161C19.7894 8.5692 19.0279 9.33036 18.07 9.33036C17.1121 9.33036 16.3506 8.5692 16.3506 7.61161V7.07143L16.9892 7.70982C17.1857 7.90625 17.4805 7.90625 17.677 7.70982C17.8735 7.51339 17.8735 7.21875 17.677 7.02232L16.2032 5.54911C16.0559 5.40178 15.8594 5.35268 15.6629 5.45089C15.4909 5.52455 15.3681 5.69643 15.3681 5.91741V7.63616C15.3681 9.13393 16.5717 10.3371 18.07 10.3371C19.5683 10.3371 20.7719 9.13393 20.7719 7.63616V3.36384C21.4842 3.14286 22 2.50446 22 1.71875C22 0.785714 21.214 0 20.2806 0ZM20.2806 2.45536C19.8631 2.45536 19.5437 2.11161 19.5437 1.71875C19.5437 1.30134 19.8631 0.982143 20.2806 0.982143C20.6982 0.982143 21.0175 1.30134 21.0175 1.71875C21.0175 2.13616 20.6736 2.45536 20.2806 2.45536Z" fill="black"/>
</svg>
