<svg width="17" height="17" viewBox="0 0 17 17" fill="none" xmlns="http://www.w3.org/2000/svg">
<path fill-rule="evenodd" clip-rule="evenodd" d="M7.20274 0.319567C7.6371 0.122528 8.04658 0 8.5 0C8.95342 0 9.3629 0.122528 9.79726 0.319567C10.2134 0.508327 10.6917 0.784844 11.2769 1.12263L16.0307 3.87124C16.3996 4.08436 16.6877 4.41306 16.8505 4.80637C17.0133 5.19969 17.0417 5.63565 16.9312 6.0467C16.8207 6.45774 16.5775 6.82091 16.2394 7.0799C15.9013 7.33889 15.487 7.47924 15.0609 7.4792H14.9241V12.4557C15.509 12.5081 16.0511 12.7839 16.4374 13.2256C16.8237 13.6674 17.0244 14.241 16.9976 14.8269C16.9709 15.4128 16.7188 15.9658 16.2939 16.3706C15.8691 16.7755 15.3041 17.0009 14.7169 17H2.28311C1.69588 17.0009 1.13094 16.7755 0.70605 16.3706C0.281155 15.9658 0.0290809 15.4128 0.00236278 14.8269C-0.0243553 14.241 0.176344 13.6674 0.562633 13.2256C0.948921 12.7839 1.49099 12.5081 2.07588 12.4557V7.4792H1.93993C1.51407 7.47893 1.10018 7.33844 0.762334 7.0795C0.424489 6.82055 0.181536 6.45759 0.071091 6.04681C-0.0393544 5.63602 -0.011132 5.20033 0.151389 4.80719C0.31391 4.41404 0.601663 4.08537 0.9701 3.87207L5.72312 1.12345C6.30834 0.784016 6.78662 0.5075 7.20274 0.319567ZM7.71667 1.45047C7.36355 1.61026 6.93749 1.85614 6.31994 2.21296L1.59262 4.94667C1.46086 5.02307 1.35797 5.14071 1.29989 5.28138C1.24181 5.42206 1.23176 5.57793 1.27131 5.72488C1.31085 5.87183 1.39778 6.00168 1.51865 6.09432C1.63951 6.18695 1.78758 6.23723 1.93993 6.23736H15.0601C15.2124 6.23723 15.3605 6.18695 15.4814 6.09432C15.6022 6.00168 15.6891 5.87183 15.7287 5.72488C15.7682 5.57793 15.7582 5.42206 15.7001 5.28138C15.642 5.14071 15.5391 5.02307 15.4074 4.94667L10.6801 2.21296C10.0617 1.85614 9.63645 1.61026 9.28333 1.45047C8.94264 1.29566 8.71469 1.24184 8.5 1.24184C8.28531 1.24184 8.05736 1.29566 7.71667 1.45047ZM13.6807 12.4466V7.4792H11.194V12.4466H13.6807ZM7.04939 12.4466V7.4792H9.95061V12.4466H7.04939ZM5.80601 12.4466V7.4792H3.31926V12.4466H5.80601ZM1.24696 14.7233C1.24696 14.152 1.71115 13.6884 2.28311 13.6884H14.7169C14.9917 13.6884 15.2552 13.7974 15.4496 13.9915C15.6439 14.1856 15.753 14.4488 15.753 14.7233C15.753 14.9978 15.6439 15.261 15.4496 15.455C15.2552 15.6491 14.9917 15.7582 14.7169 15.7582H2.28311C1.71115 15.7582 1.24696 15.2945 1.24696 14.7233Z" fill="black"/>
</svg>
