<svg width="21" height="14" viewBox="0 0 21 14" fill="none" xmlns="http://www.w3.org/2000/svg">
<path d="M20.673 6.8069L16.6552 5.4069L14.6696 1.64138C14.1324 0.627587 13.1046 0 12.0067 0H4.76529C3.64405 0 2.6396 0.627587 2.10234 1.64138L0.0233593 5.57586V5.6C-2.26252e-08 5.62414 0 5.64828 0 5.67241V11.5862C0 11.8517 0.210234 12.069 0.467186 12.069H2.38265C2.59288 13.1793 3.55061 14 4.67186 14C5.7931 14 6.75083 13.1793 6.96107 12.069H14.0623C14.2725 13.1793 15.2303 14 16.3515 14C17.4727 14 18.4305 13.1793 18.6407 12.069H20.5328C20.7898 12.069 21 11.8517 21 11.5862V7.26552C21 7.04828 20.8832 6.87931 20.673 6.8069ZM7.68521 0.989655H12.0067C12.7775 0.989655 13.4783 1.42414 13.8521 2.12414L15.5339 5.33448H7.68521V0.989655ZM2.91991 2.12414C3.29366 1.42414 3.99444 0.989655 4.76529 0.989655H6.75083V5.33448H1.23804L2.91991 2.12414ZM2.35929 11.1276H0.911012V10.1621H2.77976C2.56952 10.4517 2.42937 10.7655 2.35929 11.1276ZM4.6485 13.0586C3.87764 13.0586 3.24694 12.4069 3.24694 11.6103C3.24694 10.8138 3.87764 10.1621 4.6485 10.1621C5.41935 10.1621 6.05006 10.8138 6.05006 11.6103C6.05006 12.4069 5.41935 13.0586 4.6485 13.0586ZM16.3281 13.0586C15.5573 13.0586 14.9266 12.4069 14.9266 11.6103C14.9266 10.8138 15.5573 10.1621 16.3281 10.1621C17.099 10.1621 17.7297 10.8138 17.7297 11.6103C17.7297 12.4069 17.099 13.0586 16.3281 13.0586ZM20.0656 11.1276H18.6174C18.4071 10.0172 17.4494 9.19655 16.3281 9.19655C15.2069 9.19655 14.2492 10.0172 14.0389 11.1276H6.93771C6.72747 10.0172 5.76974 9.19655 4.6485 9.19655H0.911012V6.3H16.2581L20.0656 7.60345V11.1276Z" fill="black"/>
</svg>
