<svg xmlns="http://www.w3.org/2000/svg" width="160" height="40" viewBox="0 0 183 50" fill="none">
    <path d="M6.53081 17.1121C5.82661 16.2032 5.12453 15.6007 4.42033 15.3047C3.71613 15.0108 2.89103 14.8638 1.94503 14.8638C1.78171 14.8638 1.51233 14.8911 1.13266 14.9436L2.02563 11.6919C2.51348 11.5849 2.87831 11.5303 3.12011 11.5303C6.12144 11.5303 8.60947 13.2768 10.5842 16.7699C12.5589 20.2631 14.1264 24.5665 15.2909 29.6781C16.8584 24.9674 18.604 20.3638 20.5236 15.8652H24.2567L30.0578 35.9401H25.9196L21.9023 21.5667C19.8745 26.6258 18.1565 31.4184 16.7502 35.9401H12.8962C11.5705 29.4346 10.1918 24.5098 8.75794 21.1636L3.89006 35.9401H0L6.53081 17.1079V17.1121Z" fill="white"/>
    <path d="M79.0305 15.8584V21.6796H89.2541V15.8584H93.0678V35.9333H89.2541V25.2923H79.0305V35.9333H75.2168V15.8584H79.0305Z" fill="white"/>
    <path d="M100.326 49.9996H96.6758V32.534H99.5965L106.494 17.2768C105.088 15.6709 103.599 14.8669 102.032 14.8669C101.626 14.8669 101.151 14.8942 100.613 14.9467L101.505 11.695C101.991 11.6425 102.384 11.6152 102.683 11.6152C108.497 11.6152 113.555 18.5889 117.855 32.534H120.775V35.9474H100.328V49.9996H100.326ZM113.634 32.534C112.092 27.4749 110.497 23.499 108.847 20.6083L103.694 32.534H113.634Z" fill="white"/>
    <path d="M121.691 22.4991C122.652 20.2382 124.003 18.498 125.748 17.2804C127.492 16.0629 129.516 15.4541 131.813 15.4541C133.543 15.4541 134.916 16.2434 135.93 17.822C136.944 19.4028 137.451 21.5566 137.451 24.2856C137.451 26.2924 137.274 28.3476 136.922 30.4489C136.57 32.5502 136.097 34.3766 135.503 35.93H124.062V49.9822H120.249V30.5077C120.249 27.4302 120.728 24.76 121.689 22.497L121.691 22.4991ZM132.625 32.3571C133.247 29.7604 133.558 27.0964 133.558 24.3674C133.558 22.4676 133.382 21.0947 133.03 20.2529C132.678 19.4091 132.029 18.9892 131.083 18.9892C129.513 18.9892 128.203 19.5455 127.148 20.656C126.094 21.7665 125.316 23.173 124.815 24.8712C124.315 26.5716 124.064 28.3182 124.064 30.1109V32.3592H132.625V32.3571Z" fill="white"/>
    <path d="M144.503 49.9842L147.912 37.3363L139.271 15.8549H143.57L149.899 31.8342C150.818 29.2375 151.927 26.3343 153.225 23.1224C153.982 21.1681 154.672 19.6566 155.293 18.586C155.915 17.5154 156.57 16.7261 157.262 16.2181C157.951 15.7101 158.755 15.4561 159.675 15.4561C160 15.4561 160.324 15.4959 160.649 15.5757L161.703 18.7078H161.379C160.649 18.7078 160.025 18.9282 159.512 19.3711C158.999 19.812 158.538 20.4018 158.133 21.1387C157.728 21.8755 157.172 23.0196 156.47 24.5709C155.686 26.2566 154.793 28.4524 153.794 31.1562C152.792 33.86 151.995 36.2279 151.399 38.2621L148.315 49.9863H144.501L144.503 49.9842Z" fill="white"/>
    <path d="M168.363 15.8719V22.5769L178.587 18.8423V15.8719H182.4V35.9468H178.587V22.7364L168.363 26.4709V35.9468H164.549V15.8719H168.363ZM173.129 10.733C173.386 10.0109 173.515 9.32863 173.515 8.68626C173.515 8.36508 173.42 8.11107 173.231 7.92424C173.042 7.73741 172.811 7.64295 172.542 7.64295C172.217 7.64295 171.954 7.78359 171.75 8.06489C171.547 8.34619 171.447 8.78073 171.447 9.37061C171.447 9.69179 171.46 9.9332 171.487 10.0927L168.607 9.20897C168.552 8.83531 168.526 8.53932 168.526 8.3252C168.526 7.2273 168.925 6.32463 169.723 5.61509C170.52 4.90555 171.54 4.55078 172.785 4.55078C174.031 4.55078 174.955 4.91185 175.727 5.63398C176.497 6.35612 176.883 7.29447 176.883 8.44485C176.883 9.24885 176.701 10.1977 176.336 11.2956C175.971 12.3935 175.437 13.5439 174.733 14.7488L171.772 13.6656C172.421 12.4355 172.872 11.4572 173.131 10.7351L173.129 10.733Z" fill="white"/>
    <path d="M67.6335 30.1302H58.5468V46.9471H46.3719V30.1302H37.2852L52.4657 0L67.6335 30.1302Z" fill="#00D632"/>
    <path d="M67.6335 39.9173H58.5468V39.0441H46.3719V39.9173H37.2852L52.4657 9.78711L67.6335 39.9173Z" fill="#00D632"/>
    </svg>