<svg width="134" height="112" viewBox="0 0 134 112" fill="none" xmlns="http://www.w3.org/2000/svg">
<rect width="134" height="112" fill="none"/>
<g id="&#209;&#129;&#209;&#130;&#208;&#190;&#209;&#128;&#209;&#150;&#208;&#189;&#208;&#186;&#208;&#176;" clip-path="url(#clip0_0_1)">
<rect width="1920" height="6375" fill="none" transform="translate(-508 -2308)"/>
<g id="Group 17">
<g id="Group 14">
<path id="Vector" d="M76.546 0.354629C76.3203 0.202319 76.0667 0.0959824 75.7999 0.0416946C75.5331 -0.0125933 75.2581 -0.0137679 74.9908 0.0382381C74.7236 0.090244 74.4691 0.194411 74.2421 0.344786C74.0151 0.495161 73.8199 0.688797 73.6678 0.914628L67.0001 10.8078L60.3323 0.914421C60.0248 0.458351 59.5486 0.143145 59.0086 0.0381441C58.4686 -0.0668568 57.9091 0.0469483 57.453 0.354525C56.9969 0.662101 56.6817 1.13825 56.5767 1.67823C56.4717 2.21821 56.5855 2.77779 56.8931 3.23386L65.2804 15.6783C65.4185 15.8755 65.5903 16.0467 65.788 16.184C65.8087 16.1995 65.8195 16.2236 65.8415 16.2383C65.8676 16.2561 65.8977 16.2613 65.9244 16.2777C66.0398 16.3474 66.1618 16.4054 66.2887 16.4511C66.3442 16.4718 66.3971 16.4976 66.4546 16.5133C66.6259 16.5616 66.8028 16.5875 66.9808 16.5905L66.998 16.5926H67.0021L67.0208 16.5899C67.1982 16.5868 67.3745 16.561 67.5453 16.5129C67.6034 16.4971 67.6577 16.4704 67.7148 16.4492C67.8398 16.4042 67.9601 16.347 68.074 16.2785C68.1012 16.2617 68.1319 16.2563 68.1586 16.2381C68.1812 16.2229 68.1918 16.1985 68.2136 16.1825C68.4106 16.0453 68.5819 15.8746 68.7197 15.6781L77.107 3.23365C77.4144 2.77747 77.528 2.21787 77.4228 1.67794C77.3175 1.13802 77.0022 0.662013 76.546 0.354629Z" fill="#6B76FF"/>
<path id="Vector_2" d="M133.121 110.901C132.948 111.234 132.686 111.513 132.364 111.707C132.042 111.901 131.672 112.003 131.296 112H2.70362C2.32766 112.003 1.95826 111.901 1.63619 111.707C1.31412 111.513 1.05189 111.234 0.878434 110.901C0.695684 110.57 0.608589 110.195 0.626905 109.818C0.645221 109.44 0.768225 109.076 0.982138 108.764L65.2784 13.357C65.4798 13.0912 65.7401 12.8756 66.0387 12.7271C66.3374 12.5787 66.6664 12.5015 66.9999 12.5015C67.3334 12.5015 67.6624 12.5787 67.9611 12.7271C68.2597 12.8756 68.52 13.0912 68.7214 13.357L133.018 108.764C133.232 109.076 133.355 109.44 133.373 109.818C133.391 110.195 133.304 110.57 133.121 110.901Z" fill="#A5AEFF"/>
<path id="Vector_3" d="M103.048 112H30.9529L65.2788 61.0609C65.4802 60.795 65.7404 60.5794 66.0391 60.431C66.3378 60.2826 66.6668 60.2053 67.0003 60.2053C67.3338 60.2053 67.6628 60.2826 67.9615 60.431C68.2601 60.5794 68.5204 60.795 68.7218 61.0609L103.048 112Z" fill="#F4F4B3"/>
<path id="Vector_4" d="M37.2924 27.0818C36.5903 25.0211 35.359 23.1812 33.7219 21.7464C32.0847 20.3115 30.0992 19.3321 27.9644 18.9062C25.8295 18.4803 23.6202 18.623 21.5578 19.3199C19.4954 20.0168 17.6524 21.2435 16.2134 22.877C15.8598 22.8355 15.504 22.8147 15.148 22.8148C12.3976 22.8148 9.75982 23.9074 7.815 25.8522C5.87018 27.797 4.77759 30.4347 4.77759 33.1851C4.77759 35.9355 5.87018 38.5733 7.815 40.5181C9.75982 42.4629 12.3976 43.5555 15.148 43.5555H35.8887C37.9681 43.5569 39.9722 42.7775 41.5041 41.3715C43.0361 39.9655 43.9842 38.0354 44.1608 35.9636C44.3373 33.8917 43.7294 31.8291 42.4574 30.1842C41.1854 28.5392 39.3421 27.4321 37.2924 27.0818ZM114.703 8.29625C114.347 8.2962 113.992 8.31698 113.638 8.35847C112.199 6.72494 110.356 5.49825 108.294 4.8013C106.231 4.10434 104.022 3.9616 101.887 4.38737C99.7524 4.81314 97.767 5.79248 96.1298 7.22725C94.4926 8.66203 93.2612 10.5019 92.559 12.5624C90.5086 12.912 88.6643 14.019 87.3915 15.6642C86.1188 17.3093 85.5104 19.3725 85.687 21.445C85.8636 23.5175 86.8122 25.4481 88.345 26.8542C89.8777 28.2603 91.8827 29.0393 93.9627 29.037H114.703C117.454 29.037 120.092 27.9444 122.036 25.9996C123.981 24.0548 125.074 21.417 125.074 18.6666C125.074 15.9162 123.981 13.2785 122.036 11.3337C120.092 9.38884 117.454 8.29625 114.703 8.29625Z" fill="#6B76FF"/>
</g>
</g>
</g>
<defs>
<clipPath id="clip0_0_1">
<rect width="1920" height="6375" fill="white" transform="translate(-508 -2308)"/>
</clipPath>
</defs>
</svg>
