<svg xmlns="http://www.w3.org/2000/svg" width="17" height="22" viewBox="0 0 17 22" fill="none">
  <path d="M5.23071 7.00488H6.53841V17.4664H5.23071V7.00488Z" fill="white"/>
  <path d="M7.84619 7.00488H9.15388V17.4664H7.84619V7.00488Z" fill="white"/>
  <path d="M10.4614 7.00488H11.7691V17.4664H10.4614V7.00488Z" fill="white"/>
  <path d="M0 3.08203H17V4.38972H0V3.08203Z" fill="white"/>
  <path d="M11.7257 3.73589H10.5052V2.4282C10.5052 2.03589 10.2001 1.73077 9.80774 1.73077H7.19236C6.80005 1.73077 6.49492 2.03589 6.49492 2.4282V3.73589H5.27441V2.4282C5.27441 1.38205 6.14621 0.510254 7.19236 0.510254H9.80774C10.8539 0.510254 11.7257 1.38205 11.7257 2.4282V3.73589Z" fill="white"/>
  <path d="M12.423 21.3898H4.57685C3.53069 21.3898 2.61531 20.518 2.52813 19.4719L1.30762 3.77956L2.61531 3.69238L3.83582 19.3847C3.87941 19.777 4.22813 20.0821 4.57685 20.0821H12.423C12.8153 20.0821 13.164 19.7334 13.164 19.3847L14.3845 3.69238L15.6922 3.77956L14.4717 19.4719C14.3845 20.5616 13.4692 21.3898 12.423 21.3898Z" fill="white"/>
</svg>