<svg width="19" height="19" viewBox="0 0 19 19" fill="none" xmlns="http://www.w3.org/2000/svg">
<path fill-rule="evenodd" clip-rule="evenodd" d="M9.025 1.6435L7.81375 2.451C7.75879 2.48732 7.71216 2.53489 7.67695 2.59057C7.64174 2.64625 7.61875 2.70877 7.6095 2.774L6.24625 11.4H6.175C5.9565 11.4 5.7665 11.5472 5.71425 11.761L5.3295 13.3H4.76425C3.971 13.3 3.325 13.946 3.325 14.7392V15.827C2.8405 15.6987 2.3655 15.542 1.9 15.3568V15.2C1.9 14.9388 1.68625 14.725 1.425 14.725C1.16375 14.725 0.95 14.9388 0.95 15.2V18.05H0.475C0.21375 18.05 0 18.2638 0 18.525C0 18.7862 0.21375 19 0.475 19H18.525C18.7862 19 19 18.7862 19 18.525C19 18.2638 18.7862 18.05 18.525 18.05H18.05V15.2C18.05 14.9388 17.8363 14.725 17.575 14.725C17.3137 14.725 17.1 14.9388 17.1 15.2V15.3472C16.6392 15.5183 16.1547 15.6702 15.675 15.7937V14.7392C15.675 13.946 15.029 13.3 14.2358 13.3H13.6705L13.2857 11.761C13.2607 11.6578 13.2016 11.5661 13.118 11.5006C13.0344 11.4351 12.9312 11.3997 12.825 11.4H12.7537L11.3905 2.774C11.3715 2.641 11.2955 2.527 11.1862 2.451L9.975 1.6435V0.475C9.975 0.21375 9.76125 0 9.5 0C9.23875 0 9.025 0.21375 9.025 0.475V1.6435ZM1.9 16.3733V18.05H3.325V16.8055C2.8419 16.6896 2.36607 16.5453 1.9 16.3733ZM9.025 16.378C7.97525 16.7865 6.935 17.1 5.7 17.1C5.225 17.1 4.75 17.062 4.275 16.9907V18.05H9.025V16.378ZM17.1 16.3542C16.6345 16.511 16.15 16.6535 15.675 16.7675V18.05H17.1V16.3542ZM9.975 16.3922V18.05H14.725V16.967C14.2215 17.0525 13.7417 17.1 13.3047 17.1C12.1362 17.1095 11.0343 16.8102 9.975 16.3922ZM14.725 16.0027V14.7392C14.725 14.4685 14.5065 14.25 14.2358 14.25H4.76425C4.4935 14.25 4.275 14.4685 4.275 14.7392V16.0312C4.75 16.1073 5.225 16.15 5.7 16.15C6.9445 16.15 7.96575 15.789 9.025 15.3568V15.2C9.025 14.9388 9.23875 14.725 9.5 14.725C9.76125 14.725 9.975 14.9388 9.975 15.2V15.3662C11.0247 15.8175 12.1267 16.1595 13.2952 16.15C13.7322 16.15 14.2168 16.093 14.725 16.0027ZM12.4545 12.35H6.5455L6.308 13.3H12.692L12.4545 12.35ZM9.975 11.4H11.7942L10.488 3.13025L9.5 2.47L8.512 3.13025L7.20575 11.4H9.025V8.075C9.025 7.81375 9.23875 7.6 9.5 7.6C9.76125 7.6 9.975 7.81375 9.975 8.075V11.4Z" fill="black"/>
</svg>
