<svg width="21" height="21" viewBox="0 0 21 21" fill="none" xmlns="http://www.w3.org/2000/svg">
<path d="M20.5142 20.0465H15.2317V16.0606C15.7532 16.2627 16.3201 16.3251 16.8743 16.2414C17.4284 16.1576 17.9499 15.9308 18.3852 15.5841C19.0985 15.074 19.5781 14.3087 19.72 13.4541C19.7694 13.1456 19.7558 12.8306 19.6801 12.5273C19.6044 12.224 19.468 11.9384 19.279 11.6872C19.1144 11.4757 18.9128 11.2947 18.6835 11.1526C18.6468 11.1258 18.62 11.0881 18.6071 11.0452C18.5942 11.0022 18.596 10.9563 18.612 10.9143C18.7631 10.5721 18.8215 10.1975 18.7816 9.82664C18.7417 9.45581 18.6048 9.10137 18.3842 8.79769C18.0693 8.39063 17.6098 8.11472 17.097 8.0248C17.0502 8.0162 17.0076 7.9924 16.9763 7.95722C16.9449 7.92204 16.9265 7.87754 16.9241 7.83086C16.9295 7.73564 16.9295 7.64019 16.9241 7.54496C16.8977 6.91429 16.6505 6.31181 16.2241 5.83908C16.0246 5.61298 15.7761 5.4336 15.4966 5.31411C15.2172 5.19463 14.9141 5.13808 14.6095 5.14862C14.3443 5.16529 14.0851 5.23358 13.8471 5.34951C13.6091 5.46543 13.397 5.62667 13.2231 5.82383C12.7561 6.35488 12.5208 7.0448 12.5678 7.74462V7.77607C12.5742 7.82842 12.562 7.88132 12.5331 7.9258C12.5042 7.97027 12.4605 8.00357 12.4095 8.02004C12.2355 8.05427 12.0663 8.10849 11.9053 8.18157C11.2301 4.59779 9.28805 0 6.70482 0C3.54161 0 1.25227 6.28985 1.25227 10.5307C1.25487 11.8682 1.76774 13.1563 2.68993 14.1415C3.61212 15.1266 4.87682 15.7375 6.2351 15.8538V20.047H0.485751C0.356922 20.047 0.233369 20.0972 0.142273 20.1866C0.0511772 20.2759 0 20.3971 0 20.5235C0 20.6499 0.0511772 20.7711 0.142273 20.8604C0.233369 20.9498 0.356922 21 0.485751 21H20.5142C20.6431 21 20.7666 20.9498 20.8577 20.8604C20.9488 20.7711 21 20.6499 21 20.5235C21 20.3971 20.9488 20.2759 20.8577 20.1866C20.7666 20.0972 20.6431 20.0465 20.5142 20.0465ZM11.3258 11.9555C11.5543 11.8114 11.7248 11.5939 11.8082 11.3403C11.8915 11.0866 11.8826 10.8125 11.7829 10.5646C11.6925 10.3738 11.654 10.1633 11.671 9.95354C11.688 9.74381 11.76 9.54197 11.88 9.36759C12.0554 9.14851 12.3081 9.0018 12.5882 8.95637C12.873 8.89862 13.1264 8.74085 13.3009 8.51272C13.4754 8.28458 13.559 8.00178 13.5359 7.71746C13.498 7.26173 13.6448 6.80971 13.9445 6.45949C14.0331 6.35613 14.1419 6.27116 14.2644 6.20955C14.3869 6.14794 14.5207 6.11093 14.658 6.10068H14.7066C14.8586 6.10548 15.0079 6.1417 15.1447 6.20698C15.2815 6.27226 15.4026 6.36512 15.5003 6.4795C15.777 6.79179 15.9353 7.18814 15.9487 7.60167C15.9525 7.66324 15.9525 7.72498 15.9487 7.78655C15.9404 8.06146 16.032 8.33032 16.2071 8.54512C16.3822 8.75992 16.6294 8.90669 16.9046 8.95922C17.1817 9.00608 17.431 9.15273 17.6036 9.37045C17.7248 9.54385 17.7976 9.74527 17.8151 9.95477C17.8326 10.1643 17.794 10.3746 17.7032 10.565C17.6029 10.8129 17.5935 11.0872 17.6766 11.3411C17.7598 11.595 17.9302 11.8127 18.1588 11.9569C18.2898 12.0387 18.4049 12.1426 18.4989 12.2638C18.6113 12.4146 18.6921 12.5858 18.7365 12.7675C18.781 12.9491 18.7882 13.1377 18.7578 13.3221C18.6523 13.9271 18.3081 14.467 17.7999 14.825C16.9352 15.4645 15.8258 15.4921 15.2312 14.9203V14.2832L16.3824 13.588C16.4852 13.5187 16.5569 13.4133 16.5827 13.2936C16.6085 13.1739 16.5863 13.0491 16.5208 12.945C16.4553 12.8409 16.3515 12.7655 16.2309 12.7344C16.1103 12.7033 15.9821 12.7189 15.8729 12.7779L15.2312 13.1653V10.1081C15.2312 9.9817 15.18 9.8605 15.0889 9.77114C14.9978 9.68178 14.8743 9.63157 14.7455 9.63157C14.6166 9.63157 14.4931 9.68178 14.402 9.77114C14.3109 9.8605 14.2597 9.9817 14.2597 10.1081V12.2581L13.5937 11.8559C13.4845 11.7968 13.3564 11.7812 13.2357 11.8123C13.1151 11.8434 13.0113 11.9188 12.9458 12.023C12.8803 12.1271 12.8582 12.2519 12.8839 12.3716C12.9097 12.4913 12.9814 12.5967 13.0842 12.6659L14.2597 13.3759V14.9184C13.6656 15.4902 12.5562 15.4645 11.6925 14.8231C11.1853 14.4664 10.8411 13.9286 10.7341 13.3254C10.7025 13.1408 10.7084 12.9518 10.7516 12.7694C10.7948 12.5871 10.8744 12.4149 10.9858 12.2628C11.0798 12.1415 11.1949 12.0375 11.3258 11.9555ZM2.22523 10.5288C2.22523 6.43614 4.44074 0.951102 6.70628 0.951102C8.48753 0.951102 10.4602 5.1348 11.0431 8.8887C10.8521 9.18767 10.7374 9.52741 10.7087 9.87912C10.68 10.2308 10.7382 10.5841 10.8784 10.9091C10.8943 10.9511 10.8958 10.997 10.8829 11.0399C10.8699 11.0829 10.8431 11.1206 10.8065 11.1473C10.5763 11.2901 10.3739 11.4721 10.209 11.6848C10.0203 11.9374 9.88445 12.2242 9.80941 12.5287C9.73437 12.8331 9.72161 13.1491 9.77186 13.4584C9.78254 13.5327 9.80003 13.6066 9.81703 13.6804C9.10627 14.355 8.18857 14.7807 7.20612 14.8917V12.8427L8.66337 11.9626C8.72099 11.9315 8.77155 11.8891 8.812 11.8382C8.85244 11.7873 8.88192 11.7289 8.89864 11.6665C8.91537 11.6041 8.91899 11.539 8.90929 11.4751C8.8996 11.4113 8.87678 11.35 8.84223 11.2951C8.80768 11.2402 8.76212 11.1927 8.7083 11.1556C8.65449 11.1185 8.59354 11.0924 8.52917 11.0791C8.46479 11.0658 8.39833 11.0654 8.33381 11.078C8.26929 11.0907 8.20805 11.116 8.15382 11.1526L7.20612 11.7244V7.80513C7.20612 7.67876 7.15494 7.55756 7.06385 7.46819C6.97275 7.37883 6.8492 7.32863 6.72037 7.32863C6.59154 7.32863 6.46799 7.37883 6.37689 7.46819C6.28579 7.55756 6.23462 7.67876 6.23462 7.80513V10.6194L5.25777 10.0295C5.20354 9.99291 5.14231 9.96756 5.07778 9.95493C5.01326 9.9423 4.9468 9.94266 4.88242 9.95599C4.81805 9.96932 4.7571 9.99534 4.70329 10.0325C4.64947 10.0696 4.60391 10.1171 4.56936 10.172C4.53481 10.2269 4.51199 10.2882 4.5023 10.352C4.4926 10.4158 4.49623 10.4809 4.51295 10.5434C4.52968 10.6058 4.55915 10.6642 4.5996 10.7151C4.64004 10.766 4.6906 10.8083 4.74822 10.8395L6.2351 11.7387V14.8998C5.13494 14.7844 4.11703 14.2743 3.37691 13.4676C2.63678 12.6608 2.22662 11.6142 2.22523 10.5288ZM7.20661 15.8514C8.31124 15.7495 9.35819 15.3206 10.2085 14.6215C10.4443 14.9953 10.7496 15.3221 11.1086 15.585C11.6959 16.0331 12.4161 16.2812 13.16 16.2917C13.5397 16.292 13.9151 16.2128 14.2612 16.0596V20.0465H7.20661V15.8514Z" fill="black"/>
</svg>
