<svg width="26" height="40" viewBox="0 0 263 400" fill="none" xmlns="http://www.w3.org/2000/svg">
<path d="M144.52 0H118.244V138.022C118.244 149.744 116.784 160 113.864 168.791C111.237 177.289 107.733 185.055 103.354 192.088C98.9742 199.121 94.3029 205.714 89.3396 211.868C84.6682 217.729 80.1429 223.883 75.7635 230.33C71.3841 236.777 67.7346 243.81 64.815 251.429C62.1873 258.755 60.8735 267.399 60.8735 277.363C60.8735 295.824 66.1288 313.553 76.6393 330.549C87.1499 347.546 102.77 363.37 123.499 378.022L118.244 368.791V400H144.52V360.879C125.834 347.399 111.528 333.48 101.602 319.121C91.9672 305.055 87.1499 291.136 87.1499 277.363C87.1499 265.934 90.0695 255.971 95.9087 247.473C102.04 238.681 108.609 229.451 115.616 219.78C122.915 210.11 129.484 198.974 135.323 186.374C141.454 173.48 144.52 157.363 144.52 138.022V0ZM81.8946 162.637C67.5886 162.637 56.0562 166.154 47.2974 173.187C38.5386 180.22 34.1592 190.037 34.1592 202.637C34.1592 211.429 36.203 218.462 40.2904 223.736C44.3778 229.011 49.4871 233.7 55.6183 237.802C62.0414 241.612 68.9024 245.128 76.2014 248.352C83.5004 251.282 90.2154 254.945 96.3466 259.341C102.77 263.736 108.025 269.158 112.112 275.604C116.2 281.758 118.244 289.963 118.244 300.22V329.67H144.52V309.011L142.33 305.934V300.22C142.33 287.033 140.286 276.19 136.199 267.692C132.112 258.901 127.002 251.722 120.871 246.154C115.032 240.586 108.463 236.19 101.164 232.967C94.1569 229.451 87.5878 226.374 81.4567 223.736C75.6175 220.806 70.6542 217.875 66.5667 214.945C62.4793 212.015 60.4356 208.205 60.4356 203.516C60.4356 197.656 63.6471 192.967 70.0703 189.451C76.4934 185.934 84.9602 184.176 95.4707 184.176V183.297C95.4707 165.421 93.573 149.158 89.7775 134.505C86.274 119.853 80.7268 106.227 73.1358 93.6264C65.5449 80.7326 55.6183 68.718 43.356 57.5824C31.3856 46.1538 16.9336 35.1648 0 24.6154V316.484H131.382V290.11H26.2763V73.8461L15.7658 68.1319C24.5246 75.1648 31.9696 82.3443 38.1007 89.6703C44.5238 96.7033 49.7791 104.469 53.8665 112.967C58.2459 121.172 61.6034 130.403 63.9391 140.659C66.5667 150.916 68.4645 162.637 69.6323 175.824L81.8946 162.637ZM118.244 0V138.022C118.244 157.363 121.163 173.48 127.002 186.374C133.133 198.974 139.703 210.11 146.71 219.78C154.009 229.451 160.578 238.681 166.417 247.473C172.548 255.971 175.614 265.934 175.614 277.363C175.614 291.136 170.65 305.055 160.724 319.121C151.089 333.48 136.929 347.399 118.244 360.879V400H144.52V368.791L139.265 378.022C159.994 363.37 175.614 347.546 186.124 330.549C196.635 313.553 201.89 295.824 201.89 277.363C201.89 267.399 200.43 258.755 197.511 251.429C194.883 243.81 191.379 236.777 187 230.33C182.621 223.883 177.949 217.729 172.986 211.868C168.315 205.714 163.789 199.121 159.41 192.088C155.03 185.055 151.381 177.289 148.461 168.791C145.834 160 144.52 149.744 144.52 138.022V0H118.244ZM180.869 162.637L193.131 175.824C194.591 162.637 196.489 150.916 198.824 140.659C201.16 130.403 204.372 121.172 208.459 112.967C212.838 104.469 218.094 96.7033 224.225 89.6703C230.648 82.3443 238.239 75.1648 246.998 68.1319L236.487 73.8461V290.11H131.382V316.484H262.763V24.6154C245.83 35.1648 231.232 46.1538 218.97 57.5824C206.999 68.718 197.219 80.7326 189.628 93.6264C182.037 106.227 176.343 119.853 172.548 134.505C169.044 149.158 167.293 165.421 167.293 183.297V184.176C177.803 184.176 186.27 185.934 192.693 189.451C199.116 192.967 202.328 197.656 202.328 203.516C202.328 208.205 200.284 212.015 196.197 214.945C192.109 217.875 187 220.806 180.869 223.736C175.03 226.374 168.461 229.451 161.162 232.967C154.155 236.19 147.585 240.586 141.454 246.154C135.615 251.722 130.652 258.901 126.564 267.692C122.477 276.19 120.433 287.033 120.433 300.22V305.934L118.244 309.011V329.67H144.52V300.22C144.52 289.963 146.564 281.758 150.651 275.604C154.738 269.158 159.848 263.736 165.979 259.341C172.402 254.945 179.263 251.282 186.562 248.352C193.861 245.128 200.576 241.612 206.707 237.802C213.13 233.7 218.386 229.011 222.473 223.736C226.56 218.462 228.604 211.429 228.604 202.637C228.604 190.037 224.225 180.22 215.466 173.187C206.707 166.154 195.175 162.637 180.869 162.637Z" fill="white"/>
</svg>
