<svg width="12" height="16" viewBox="0 0 12 16" fill="none" xmlns="http://www.w3.org/2000/svg">
<path d="M6.14726 0.547119L6.14723 0.547162L6.15325 0.551243C6.24058 0.610361 7.59032 1.55478 8.91303 3.18144C10.237 4.80969 11.5 7.07876 11.5 9.80047C11.5 11.3173 10.9167 12.7688 9.88335 13.8365C8.85055 14.9036 7.45331 15.5 6 15.5C4.54669 15.5 3.14945 14.9036 2.11665 13.8365C1.0833 12.7688 0.5 11.3173 0.5 9.80047C0.5 7.12777 1.76002 4.86057 3.08518 3.21906C4.40838 1.57997 5.75954 0.611336 5.85009 0.548959L5.8501 0.548968L5.85274 0.547119C5.89776 0.515677 5.94902 0.5 6 0.5C6.05097 0.5 6.10224 0.515677 6.14726 0.547119ZM1.04839 9.80047L1.04839 9.80131C1.05065 11.1477 1.56914 12.4414 2.49521 13.3983C3.42181 14.3557 4.68143 14.8978 5.9991 14.9001L6.0009 14.9001C7.31857 14.8978 8.57819 14.3557 9.50479 13.3983C10.4309 12.4414 10.9494 11.1477 10.9516 9.80131V9.80047C10.9516 7.66352 10.0836 5.80659 9.08575 4.37759C8.08709 2.94749 6.93642 1.91401 6.31391 1.41189L5.99639 1.15577L5.68175 1.41543C5.06736 1.92247 3.91714 2.95511 2.91749 4.38311C1.9187 5.80989 1.04839 7.66301 1.04839 9.80047Z" fill="black" stroke="black"/>
</svg>
